<svg width="24" height="18" viewBox="0 0 24 18" fill="none" xmlns="http://www.w3.org/2000/svg">
<path d="M-1.16564e-07 15.3333C-1.48752e-07 14.597 1.00736 14 2.25 14L21.75 14C22.9926 14 24 14.597 24 15.3333L24 16.6667C24 17.403 22.9926 18 21.75 18L2.25 18C1.00736 18 -2.60937e-08 17.403 -5.82818e-08 16.6667L-1.16564e-07 15.3333Z" fill="#3232F0"/>
<path d="M-1.16564e-07 8.33333C-1.48752e-07 7.59695 1.00736 7 2.25 7L21.75 7C22.9926 7 24 7.59695 24 8.33333L24 9.66667C24 10.403 22.9926 11 21.75 11L2.25 11C1.00736 11 -2.60937e-08 10.403 -5.82818e-08 9.66667L-1.16564e-07 8.33333Z" fill="#3232F0"/>
<path d="M-1.16564e-07 1.33333C-1.48752e-07 0.596954 1.00736 9.09641e-07 2.25 8.55324e-07L21.75 2.95162e-09C22.9926 -5.1366e-08 24 0.596953 24 1.33333L24 2.66667C24 3.40305 22.9926 4 21.75 4L2.25 4C1.00736 4 -2.60937e-08 3.40305 -5.82818e-08 2.66667L-1.16564e-07 1.33333Z" fill="#3232F0"/>
</svg>
